<svg xmlns="http://www.w3.org/2000/svg" width="16" height="17" fill="#2D3440" viewBox="0 0 16 17">
  <path fill-rule="evenodd" d="M1.1667 2.108a.6667.6667 0 0 0 0 1.3333h1.7712l.4675 2.3354a.664.664 0 0 0 .0106.053l.9674 4.8334.0001.0006a1.8257 1.8257 0 0 0 1.8183 1.4691h5.6207a1.8256 1.8256 0 0 0 1.8185-1.4697l.001-.005.9271-4.8614a.6669.6669 0 0 0-.6549-.7916H4.6107l-.4726-2.3613a.6667.6667 0 0 0-.6537-.5359H1.1667Zm4.5243 8.2944-.8134-4.064h8.2308l-.7756 4.0669a.4926.4926 0 0 1-.4918.3943v-.0002H6.1962v-.0001l-.0128.0003a.4925.4925 0 0 1-.4922-.3963l-.0002-.0009Zm-1.1336 3.961c0-.688.5577-1.2457 1.2457-1.2457.688 0 1.2457.5577 1.2457 1.2457 0 .6879-.5577 1.2457-1.2457 1.2457-.688 0-1.2457-.5578-1.2457-1.2457Zm6.3733 0c0-.688.5577-1.2457 1.2457-1.2457.688 0 1.2457.5577 1.2457 1.2457 0 .6879-.5577 1.2457-1.2457 1.2457-.688 0-1.2457-.5578-1.2457-1.2457Z" clip-rule="evenodd"/>
</svg>
